<?xml version="1.0" encoding="UTF-8"?>
<svg id="Layer_2" data-name="Layer 2" xmlns="http://www.w3.org/2000/svg" viewBox="0 0 532.16 532.16">
  <defs>
    <style>
      .cls-1 {
        fill: #fff;
      }

      .cls-2 {
        fill: none;
        stroke: #fff;
        stroke-miterlimit: 10;
        stroke-width: 44px;
      }
    </style>
  </defs>
  <g id="Layer_1-2" data-name="Layer 1">
    <g>
      <path class="cls-1" d="M87.02,107.52l1.32-10.2-8.21,1.59c-.27-7.59-.35-14.48-.27-20.66h29.14v84.77h-21.99v-55.5Zm15.89,13.38l14.83-1.32c3.44-.35,6.09-1.59,7.95-3.71,1.85-2.12,2.78-4.86,2.78-8.21s-.95-6-2.85-7.95c-1.9-1.94-4.53-2.91-7.88-2.91h-14.83v-18.54h16.16c9.71,0,17.35,2.63,22.91,7.88,5.56,5.25,8.34,12.43,8.34,21.52s-2.78,15.69-8.34,21.12c-5.56,5.43-13.2,8.54-22.91,9.34l-16.16,1.32v-18.54Z"/>
      <path class="cls-1" d="M186.61,115.87c3.62-15.72,8.03-28.25,13.24-37.62h32.05c5.21,9.36,9.62,21.9,13.24,37.62,3.62,15.72,5.91,31.43,6.89,47.15h-21.85c-.35-6.18-.71-10.73-1.06-13.64h-26.49c-.35,2.91-.71,7.46-1.06,13.64h-21.85c.97-15.72,3.27-31.43,6.89-47.15Zm36.16-3.11c-1.5-5.78-3.14-10.93-4.9-15.43h-3.97c-1.77,4.5-3.4,9.65-4.9,15.43-1.5,5.78-2.78,11.85-3.84,18.21h21.46c-1.06-6.36-2.34-12.43-3.84-18.21Z"/>
      <path class="cls-1" d="M305.55,96.79h-24.77l-.79-18.54h72.32l.79,18.54h-25.56v66.22h-21.99V96.79Z"/>
      <path class="cls-1" d="M406.21,96.79h-24.77l-.79-18.54h72.32l.79,18.54h-25.56v66.22h-21.99V96.79Z"/>
      <path class="cls-1" d="M77.88,223.22h26.75v16.82l-26.75,3.84v-20.66Zm9.8,29.4l3.97-29.4h18.01v84.77h-21.99v-55.36Zm17.48,37.08l42.91-1.32-1.32,19.6h-52.58l10.99-18.28Zm0-48.21l2.25-18.28h38.01l1.32,19.6-41.59-1.32Zm1.99,31.92v-16.82l33.24-1.46v19.34l-33.24-1.06Z"/>
      <path class="cls-1" d="M189.66,252.49l1.32-10.2-8.21,1.59c-.26-7.59-.35-14.48-.26-20.66h29.14v84.77h-21.99v-55.5Zm15.89,12.05l14.3-1.19c3.44-.27,6.2-1.43,8.28-3.51,2.07-2.07,3.11-4.7,3.11-7.88s-.86-5.67-2.58-7.48c-1.72-1.81-4.13-2.71-7.22-2.71h-15.89l6.23-18.54h10.73c9.45,0,16.91,2.36,22.38,7.09,5.47,4.72,8.21,11.19,8.21,19.4,0,6.18-1.35,11.57-4.04,16.16-2.69,4.59-6.36,8.23-10.99,10.93-4.64,2.7-9.78,4.3-15.43,4.83l-17.09,1.59v-18.67Zm17.75,25.76c-2.12-5.7-4.15-10.4-6.09-14.11l16.69-9.27c3.71,5.03,7.44,11.24,11.19,18.61,3.75,7.37,7.04,14.86,9.87,22.45h-26.09c-1.59-6.09-3.44-11.99-5.56-17.68Z"/>
      <path class="cls-1" d="M283.03,223.22h20l27.81,52.45-1.46,.66-1.32-53.11h21.99v84.77h-20l-27.81-52.32,1.46-.66,1.32,52.98h-21.99v-84.77Z"/>
      <path class="cls-1" d="M390.98,252.49l1.32-10.2-8.21,1.59c-.26-7.59-.35-14.48-.26-20.66h29.14v84.77h-21.99v-55.5Zm15.89,12.05l14.3-1.19c3.44-.27,6.2-1.43,8.28-3.51,2.07-2.07,3.11-4.7,3.11-7.88s-.86-5.67-2.58-7.48c-1.72-1.81-4.13-2.71-7.22-2.71h-15.89l6.22-18.54h10.73c9.45,0,16.91,2.36,22.38,7.09,5.47,4.72,8.21,11.19,8.21,19.4,0,6.18-1.35,11.57-4.04,16.16-2.69,4.59-6.36,8.23-10.99,10.93-4.63,2.7-9.78,4.3-15.43,4.83l-17.08,1.59v-18.67Zm17.75,25.76c-2.12-5.7-4.15-10.4-6.09-14.11l16.69-9.27c3.71,5.03,7.44,11.24,11.19,18.61,3.75,7.37,7.04,14.86,9.87,22.45h-26.09c-1.59-6.09-3.44-11.99-5.56-17.68Z"/>
      <path class="cls-1" d="M85.96,405.8c3.62-15.72,8.03-28.25,13.24-37.62h32.05c5.21,9.36,9.62,21.9,13.24,37.62,3.62,15.72,5.91,31.43,6.89,47.15h-21.85c-.35-6.18-.71-10.73-1.06-13.64h-26.49c-.35,2.91-.71,7.46-1.06,13.64h-21.85c.97-15.72,3.27-31.43,6.89-47.15Zm36.16-3.11c-1.5-5.78-3.14-10.93-4.9-15.43h-3.97c-1.77,4.5-3.4,9.65-4.9,15.43-1.5,5.78-2.78,11.85-3.84,18.21h21.46c-1.06-6.36-2.34-12.43-3.84-18.21Z"/>
      <path class="cls-1" d="M186.22,397.59l1.32-10.07-8.48,1.32c-.35-6.89-.35-13.77,0-20.66h27.02c10.15,0,18.61,1.59,25.36,4.77,6.75,3.18,11.81,7.9,15.17,14.17,3.35,6.27,5.03,14.08,5.03,23.44s-1.66,17.07-4.97,23.38c-3.31,6.31-8.26,11.06-14.83,14.24-6.58,3.18-14.72,4.77-24.44,4.77h-21.19v-55.36Zm34.37,32.85c2.96-1.77,5.23-4.35,6.82-7.75,1.59-3.4,2.38-7.44,2.38-12.12s-.79-8.72-2.38-12.12c-1.59-3.4-3.86-5.98-6.82-7.75-2.96-1.77-6.51-2.65-10.66-2.65h-1.72v45.03h1.72c4.15,0,7.7-.88,10.66-2.65Z"/>
      <path class="cls-1" d="M286.74,368.19h59.34l.66,19.21-30.33-1.32-30.33,1.32,.66-19.21Zm-.66,65.56l30.33,1.33,30.33-1.33-.66,19.21h-59.34l-.66-19.21Zm19.34-65.56h21.99v84.77h-21.99v-84.77Z"/>
      <path class="cls-1" d="M397.73,450.04c-5.3-3.35-9.34-8.34-12.12-14.97-2.78-6.62-4.17-14.75-4.17-24.37s1.39-17.9,4.17-24.57c2.78-6.67,6.82-11.68,12.12-15.03,5.3-3.35,11.79-5.03,19.47-5.03s14.17,1.68,19.47,5.03c5.3,3.36,9.34,8.37,12.12,15.03,2.78,6.67,4.17,14.86,4.17,24.57s-1.39,17.75-4.17,24.37c-2.78,6.62-6.82,11.61-12.12,14.97s-11.79,5.03-19.47,5.03-14.17-1.68-19.47-5.03Zm27.02-17.28c1.94-1.63,3.38-4.24,4.3-7.81,.93-3.58,1.39-8.32,1.39-14.24s-.46-10.82-1.39-14.44c-.93-3.62-2.36-6.25-4.3-7.88-1.94-1.63-4.46-2.45-7.55-2.45s-5.61,.82-7.55,2.45c-1.94,1.63-3.38,4.26-4.3,7.88-.93,3.62-1.39,8.43-1.39,14.44s.46,10.66,1.39,14.24c.93,3.58,2.36,6.18,4.3,7.81,1.94,1.63,4.46,2.45,7.55,2.45s5.61-.82,7.55-2.45Z"/>
    </g>
    <rect class="cls-2" x="22" y="22" width="488.16" height="488.16"/>
  </g>
</svg>